<?xml version="1.0" encoding="UTF-8"?>
<!DOCTYPE svg PUBLIC "-//W3C//DTD SVG 1.1//EN" "http://www.w3.org/Graphics/SVG/1.1/DTD/svg11.dtd">
<svg xmlns="http://www.w3.org/2000/svg" version="1.1" width="986px" height="996px" style="shape-rendering:geometricPrecision; text-rendering:geometricPrecision; image-rendering:optimizeQuality; fill-rule:evenodd; clip-rule:evenodd" xmlns:xlink="http://www.w3.org/1999/xlink">
<g><path style="opacity:0.995" fill="#ed3a39" d="M 191.5,-0.5 C 197.833,-0.5 204.167,-0.5 210.5,-0.5C 219.217,1.35065 227.883,3.85065 236.5,7C 277.81,28.8232 320.81,46.4898 365.5,60C 407.31,70.7567 449.81,75.59 493,74.5C 554.245,76.2648 613.412,66.0981 670.5,44C 696.094,34.0372 721.094,22.7039 745.5,10C 787.273,-7.68243 822.106,1.1509 850,36.5C 864.918,57.7588 869.585,81.0921 864,106.5C 861.692,114.758 859.025,122.758 856,130.5C 895.866,109.978 931.533,115.645 963,147.5C 974.501,160.17 982.001,174.837 985.5,191.5C 985.5,199.5 985.5,207.5 985.5,215.5C 983.273,225.35 980.106,235.017 976,244.5C 948.938,294.686 929.605,347.686 918,403.5C 897.21,526.653 915.876,643.319 974,753.5C 991.92,795.267 983.42,830.434 948.5,859C 926.065,874.953 901.399,879.619 874.5,873C 867.889,871.186 861.556,868.686 855.5,865.5C 875.027,908.481 867.027,945.648 831.5,977C 819.735,986.718 806.402,992.885 791.5,995.5C 785.167,995.5 778.833,995.5 772.5,995.5C 763.01,993.618 753.677,990.785 744.5,987C 704.743,966.12 663.41,949.12 620.5,936C 578.088,924.542 534.922,919.709 491,921.5C 428.886,919.123 369.052,929.623 311.5,953C 285.688,963.572 260.355,975.238 235.5,988C 226.91,991.258 218.243,993.758 209.5,995.5C 203.167,995.5 196.833,995.5 190.5,995.5C 152.637,986.138 128.804,962.471 119,924.5C 115.469,903.879 118.636,884.379 128.5,866C 122.61,868.265 116.61,870.598 110.5,873C 70.4926,883.111 38.3259,871.611 14,838.5C 5.99367,826.185 1.16034,812.852 -0.5,798.5C -0.5,794.5 -0.5,790.5 -0.5,786.5C 1.0505,775.64 3.88384,764.973 8,754.5C 32.5767,708.104 51.2434,659.437 64,608.5C 71.6959,571.898 74.8625,534.898 73.5,497.5C 75.8682,432.347 64.7016,370.014 40,310.5C 30.3475,287.5 19.6809,264.5 8,241.5C 4.4223,232.607 1.58897,223.607 -0.5,214.5C -0.5,206.5 -0.5,198.5 -0.5,190.5C 9.06296,151.772 33.3963,127.939 72.5,119C 92.1686,116.445 110.835,119.611 128.5,128.5C 108.519,84.9206 116.853,47.4206 153.5,16C 164.934,7.44462 177.601,1.94462 191.5,-0.5 Z M 791.5,193.5 C 724.819,275.504 657.653,357.171 590,438.5C 561.265,478.193 561.431,517.86 590.5,557.5C 657.316,637.153 723.649,717.153 789.5,797.5C 710.433,731.943 631.766,665.776 553.5,599C 535.676,584.761 515.343,576.594 492.5,574.5C 469.18,576.664 448.513,585.164 430.5,600C 351.901,667.11 272.901,733.61 193.5,799.5C 261.499,717.998 329.332,636.332 397,554.5C 423.619,515.682 422.952,477.349 395,439.5C 328.245,358.956 261.745,278.289 195.5,197.5C 275.275,264.767 354.941,332.267 434.5,400C 471.569,428.292 508.903,428.626 546.5,401C 627.765,331.225 709.432,262.058 791.5,193.5 Z"/></g>
</svg>
